<svg width="16" height="17" viewBox="0 0 16 17" fill="none" xmlns="http://www.w3.org/2000/svg">
<path fill-rule="evenodd" clip-rule="evenodd" d="M0.39197 16.9954H15.6094C15.7132 16.9954 15.8128 16.956 15.8861 16.8858C15.9594 16.8157 16.0004 16.7207 16 16.6217C16 12.4098 12.4183 8.99536 8 8.99536C3.58172 8.99536 0 12.4098 0 16.6217C0 16.8281 0.175491 16.9954 0.39197 16.9954ZM14.9333 16.0001H1.06667C1.21998 12.6471 4.27878 10.0001 8 10.0001C11.7212 10.0001 14.78 12.6471 14.9333 16.0001Z" fill="#414B5A"/>
<path fill-rule="evenodd" clip-rule="evenodd" d="M4 4C4 6.20914 5.79086 8 8 8C10.2071 7.99518 11.9952 6.20714 12 4C12 1.79086 10.2091 0 8 0C5.79086 0 4 1.79086 4 4ZM5 4.00305C4.99832 2.3468 6.33916 1.00253 7.99542 1C9.65328 0.999367 10.9981 2.34214 11 4C11 5.65626 9.65778 6.99916 8.00153 7C6.34527 7.00084 5.00169 5.65931 5 4.00305Z" fill="#414B5A"/>
</svg>
