<svg width="18" height="14" viewBox="0 0 18 14" fill="none" xmlns="http://www.w3.org/2000/svg">
<path fill-rule="evenodd" clip-rule="evenodd" d="M7.70711 13.7071C8.09763 13.3166 8.09763 12.6834 7.70711 12.2929L3.41421 8H17C17.5523 8 18 7.55228 18 7C18 6.44772 17.5523 6 17 6H3.41421L7.70711 1.70711C8.09763 1.31658 8.09763 0.683417 7.70711 0.292893C7.31658 -0.0976311 6.68342 -0.0976311 6.29289 0.292893L0.292892 6.29289C0.109835 6.47595 0.0125847 6.71232 0.00114441 6.95203C0.00038147 6.96801 0 6.984 0 7M0.0758781 7.38278C0.124678 7.50073 0.197016 7.61123 0.292892 7.70711L6.29289 13.7071C6.68342 14.0976 7.31658 14.0976 7.70711 13.7071M0.0758781 7.38278C0.0280952 7.26756 0.00123787 7.14146 4.19617e-05 7.00923L0.0758781 7.38278Z" fill="#8C8C8C"/>
</svg>
