<svg width="24" height="24" viewBox="0 0 24 24" fill="none" xmlns="http://www.w3.org/2000/svg">
<path fill-rule="evenodd" clip-rule="evenodd" d="M8.42849 18.4371C8.42377 17.3737 9.28076 16.5071 10.3442 16.5C10.8579 16.4966 11.3517 16.6983 11.7162 17.0603C12.0807 17.4224 12.2856 17.9149 12.2856 18.4286C12.2856 19.4921 11.4247 20.3548 10.3613 20.3571C9.29786 20.3595 8.4332 19.5006 8.42849 18.4371ZM9.70132 18.4286C9.70132 18.7837 9.98914 19.0715 10.3442 19.0715C10.6992 19.0715 10.987 18.7837 10.987 18.4286C10.987 18.0736 10.6992 17.7858 10.3442 17.7858C9.98914 17.7858 9.70132 18.0736 9.70132 18.4286Z" fill="#282828"/>
<path fill-rule="evenodd" clip-rule="evenodd" d="M13.5716 18.4371C13.5668 17.3737 14.4238 16.5071 15.4872 16.5C16.001 16.4966 16.4948 16.6983 16.8593 17.0603C17.2237 17.4224 17.4287 17.9149 17.4287 18.4286C17.4287 19.4921 16.5678 20.3548 15.5044 20.3571C14.4409 20.3595 13.5763 19.5006 13.5716 18.4371ZM14.8444 18.4286C14.8444 18.7837 15.1322 19.0715 15.4872 19.0715C15.8423 19.0715 16.1301 18.7837 16.1301 18.4286C16.1301 18.0736 15.8423 17.7858 15.4872 17.7858C15.1322 17.7858 14.8444 18.0736 14.8444 18.4286Z" fill="#282828"/>
<path fill-rule="evenodd" clip-rule="evenodd" d="M6.33278 3.64307L6.69278 5.57164H21.3628L20.2314 12.2188C20.1238 12.8424 19.5784 13.2951 18.9456 13.2859H8.13278L8.35135 14.4945H17.5699C17.925 14.4945 18.2128 14.7823 18.2128 15.1374C18.2128 15.4924 17.925 15.7802 17.5699 15.7802H7.28421L5.26564 4.92878H3.85135C3.49631 4.92878 3.2085 4.64096 3.2085 4.28592C3.2085 3.93088 3.49631 3.64307 3.85135 3.64307H6.33278ZM7.8885 12.0002H18.9456L19.8456 6.85735H6.9885L7.8885 12.0002Z" fill="#282828"/>
</svg>
