<svg width="24" height="24" viewBox="0 0 24 24" fill="none" xmlns="http://www.w3.org/2000/svg">
<path fill-rule="evenodd" clip-rule="evenodd" d="M8.42861 18.4371C8.42389 17.3737 9.28089 16.5071 10.3443 16.5C10.858 16.4966 11.3519 16.6983 11.7163 17.0603C12.0808 17.4224 12.2857 17.9149 12.2857 18.4286C12.2857 19.4921 11.4249 20.3548 10.3614 20.3571C9.29798 20.3595 8.43333 19.5006 8.42861 18.4371ZM9.70145 18.4286C9.70145 18.7837 9.98926 19.0715 10.3443 19.0715C10.6993 19.0715 10.9872 18.7837 10.9872 18.4286C10.9872 18.0736 10.6993 17.7858 10.3443 17.7858C9.98926 17.7858 9.70145 18.0736 9.70145 18.4286Z" fill="white"/>
<path fill-rule="evenodd" clip-rule="evenodd" d="M13.5714 18.4371C13.5667 17.3737 14.4237 16.5071 15.4871 16.5C16.0008 16.4966 16.4947 16.6983 16.8592 17.0603C17.2236 17.4224 17.4286 17.9149 17.4286 18.4286C17.4285 19.4921 16.5677 20.3548 15.5042 20.3571C14.4408 20.3595 13.5761 19.5006 13.5714 18.4371ZM14.8443 18.4286C14.8443 18.7837 15.1321 19.0715 15.4871 19.0715C15.8422 19.0715 16.13 18.7837 16.13 18.4286C16.13 18.0736 15.8422 17.7858 15.4871 17.7858C15.1321 17.7858 14.8443 18.0736 14.8443 18.4286Z" fill="white"/>
<path fill-rule="evenodd" clip-rule="evenodd" d="M6.3329 3.64307L6.6929 5.57164H21.3629L20.2315 12.2188C20.124 12.8424 19.5786 13.2951 18.9458 13.2859H8.1329L8.35148 14.4945H17.57C17.9251 14.4945 18.2129 14.7823 18.2129 15.1374C18.2129 15.4924 17.9251 15.7802 17.57 15.7802H7.28433L5.26576 4.92878H3.85148C3.49644 4.92878 3.20862 4.64096 3.20862 4.28592C3.20862 3.93088 3.49644 3.64307 3.85148 3.64307H6.3329ZM7.88862 12.0002H18.9458L19.8458 6.85735H6.98862L7.88862 12.0002Z" fill="white"/>
</svg>
