<svg width="20" height="19" viewBox="0 0 20 19" fill="none" xmlns="http://www.w3.org/2000/svg">
<path fill-rule="evenodd" clip-rule="evenodd" d="M1 18.409C1 18.6349 1.18316 18.8181 1.40909 18.8181H18.5909C18.8168 18.8181 19 18.6349 19 18.409V8.18171C18.9983 8.05751 18.9413 7.94054 18.8445 7.86262L10.2536 0.908074C10.1072 0.784223 9.89278 0.784223 9.74636 0.908074L1.15545 7.86262C1.05873 7.94054 1.00174 8.05751 1 8.18171V18.409ZM18.1818 8.37807V17.9999H1.81818V8.37807L10 1.7508L18.1818 8.37807Z" fill="#414B5A"/>
<path d="M19 8.18171L19.15 8.18171L19.15 8.1796L19 8.18171ZM18.8445 7.86262L18.7502 7.97921L18.7504 7.97943L18.8445 7.86262ZM10.2536 0.908074L10.1567 1.02262L10.1593 1.02466L10.2536 0.908074ZM9.74636 0.908074L9.84077 1.02469L9.84324 1.0226L9.74636 0.908074ZM1.15545 7.86262L1.24956 7.97943L1.24983 7.97921L1.15545 7.86262ZM1 8.18171L0.85 8.17961V8.18171H1ZM18.1818 17.9999V18.1499H18.3318V17.9999H18.1818ZM18.1818 8.37807H18.3318V8.30654L18.2762 8.26151L18.1818 8.37807ZM1.81818 17.9999H1.66818V18.1499H1.81818V17.9999ZM1.81818 8.37807L1.72377 8.26151L1.66818 8.30654V8.37807H1.81818ZM10 1.7508L10.0944 1.63424L10 1.55777L9.90559 1.63424L10 1.7508ZM1.40909 18.6681C1.266 18.6681 1.15 18.5521 1.15 18.409H0.85C0.85 18.7178 1.10031 18.9681 1.40909 18.9681V18.6681ZM18.5909 18.6681H1.40909V18.9681H18.5909V18.6681ZM18.85 18.409C18.85 18.5521 18.734 18.6681 18.5909 18.6681V18.9681C18.8997 18.9681 19.15 18.7178 19.15 18.409H18.85ZM18.85 8.18171V18.409H19.15V8.18171H18.85ZM18.7504 7.97943C18.8124 8.02934 18.8489 8.10426 18.85 8.18382L19.15 8.1796C19.1476 8.01076 19.0701 7.85175 18.9386 7.74581L18.7504 7.97943ZM10.1593 1.02466L18.7502 7.97921L18.9389 7.74603L10.348 0.791487L10.1593 1.02466ZM9.84324 1.0226C9.93373 0.946049 10.0663 0.946049 10.1568 1.0226L10.3505 0.793552C10.1482 0.622397 9.85182 0.622397 9.64949 0.793552L9.84324 1.0226ZM1.24983 7.97921L9.84074 1.02466L9.65198 0.791487L1.06107 7.74603L1.24983 7.97921ZM1.14999 8.18381C1.1511 8.10426 1.1876 8.02934 1.24956 7.97943L1.06135 7.74581C0.929852 7.85175 0.852384 8.01076 0.850015 8.17961L1.14999 8.18381ZM1.15 18.409V8.18171H0.85V18.409H1.15ZM18.3318 17.9999V8.37807H18.0318V17.9999H18.3318ZM1.81818 18.1499H18.1818V17.8499H1.81818V18.1499ZM1.66818 8.37807V17.9999H1.96818V8.37807H1.66818ZM9.90559 1.63424L1.72377 8.26151L1.9126 8.49463L10.0944 1.86736L9.90559 1.63424ZM18.2762 8.26151L10.0944 1.63424L9.90559 1.86736L18.0874 8.49463L18.2762 8.26151Z" fill="#414B5A"/>
<path d="M14.909 15.3636H5.09085C4.86492 15.3636 4.68176 15.1804 4.68176 14.9545C4.68176 14.7286 4.86492 14.5454 5.09085 14.5454H14.909C15.135 14.5454 15.3181 14.7286 15.3181 14.9545C15.3181 15.1804 15.135 15.3636 14.909 15.3636Z" fill="#414B5A" stroke="#414B5A" stroke-width="0.4"/>
</svg>
