<svg width="16" height="17" viewBox="0 0 16 17" fill="none" xmlns="http://www.w3.org/2000/svg">
<path fill-rule="evenodd" clip-rule="evenodd" d="M0.31875 17H15.6812C15.8573 17 16 16.8484 16 16.6613V0.338672C16 0.151629 15.8573 0 15.6812 0H0.31875C0.142709 0 0 0.151629 0 0.338672V16.6613C0 16.8484 0.142709 17 0.31875 17ZM15 16H1V1H15V16Z" fill="#C2C8D0"/>
<path d="M4.2025 4.97059C4.09066 4.97059 4 4.7599 4 4.5C4 4.2401 4.09066 4.02941 4.2025 4.02941H11.7975C11.9093 4.02941 12 4.2401 12 4.5C12 4.7599 11.9093 4.97059 11.7975 4.97059H4.2025Z" fill="#C2C8D0"/>
<path d="M11.7975 9H4.2025C4.09066 9 4 8.77614 4 8.5C4 8.22386 4.09066 8 4.2025 8H11.7975C11.9093 8 12 8.22386 12 8.5C12 8.77614 11.9093 9 11.7975 9Z" fill="#C2C8D0"/>
<path d="M11.7975 13H4.2025C4.09066 13 4 12.7761 4 12.5C4 12.2239 4.09066 12 4.2025 12H11.7975C11.9093 12 12 12.2239 12 12.5C12 12.7761 11.9093 13 11.7975 13Z" fill="#C2C8D0"/>
</svg>
