<svg width="16" height="15" viewBox="0 0 16 15" fill="none" xmlns="http://www.w3.org/2000/svg">
<path id="Paper-plane - simple-line-icons" d="M14.7402 0.875C14.6582 0.875 14.5579 0.897786 14.4395 0.943359L1.38281 6.48047C1.22786 6.55339 1.11849 6.63997 1.05469 6.74023C1 6.83138 0.995443 6.93164 1.04102 7.04102C1.08659 7.15039 1.17773 7.25065 1.31445 7.3418L5.00586 9.63867C5.15169 9.72982 5.30664 9.84831 5.4707 9.99414C5.63477 10.14 5.78971 10.2949 5.93555 10.459C6.08138 10.623 6.19531 10.778 6.27734 10.9238L8.49219 14.5469C8.55599 14.6471 8.62435 14.7201 8.69727 14.7656C8.77018 14.8203 8.8431 14.8477 8.91602 14.8477C9.09831 14.8477 9.23958 14.7246 9.33984 14.4785L14.9316 1.43555C15.0684 1.10742 15.0273 0.920573 14.8086 0.875C14.7812 0.875 14.7585 0.875 14.7402 0.875ZM5.4707 8.85938L2.47656 7L12.5117 2.73438L6.04492 9.31055C5.83529 9.11914 5.64388 8.96875 5.4707 8.85938ZM8.84766 13.3848L7.05664 10.4727C7.0293 10.418 6.99284 10.3587 6.94727 10.2949C6.90169 10.2311 6.85612 10.1719 6.81055 10.1172C6.76497 10.0534 6.71484 9.98958 6.66016 9.92578L13.1406 3.33594L8.84766 13.3848Z" fill="#7F7F7F"/>
</svg>
