<svg width="24" height="24" viewBox="0 0 24 24" fill="none" xmlns="http://www.w3.org/2000/svg">
<g id="Group Copy 2" clip-path="url(#clip0_0_2525)">
<circle id="Oval" cx="12" cy="12" r="12" fill="#E5E5E5" fill-opacity="0.01"/>
<path id="&#238;&#129;&#143;" d="M18.1875 6.91992H14.8301V5.83008C14.8301 5.52539 14.7539 5.24414 14.6016 4.98633C14.4492 4.72852 14.2441 4.52344 13.9863 4.37109C13.7285 4.21875 13.4473 4.14258 13.1426 4.14258H10.8926C10.7168 4.14258 10.541 4.17187 10.3652 4.23047C10.1895 4.28906 10.0312 4.37109 9.89062 4.47656C9.76172 4.58203 9.64453 4.70508 9.53906 4.8457C9.43359 4.97461 9.35156 5.12695 9.29297 5.30273C9.23438 5.47852 9.20508 5.6543 9.20508 5.83008V6.91992H5.8125C5.49609 6.91992 5.22656 7.03125 5.00391 7.25391C4.79297 7.46484 4.6875 7.72852 4.6875 8.04492V20.9824C4.6875 21.2871 4.79297 21.5508 5.00391 21.7734C5.22656 21.9961 5.49609 22.1074 5.8125 22.1074H18.1875C18.5039 22.1074 18.7676 21.9961 18.9785 21.7734C19.2012 21.5508 19.3125 21.2871 19.3125 20.9824V8.04492C19.3125 7.72852 19.2012 7.46484 18.9785 7.25391C18.7676 7.03125 18.5039 6.91992 18.1875 6.91992ZM10.3301 5.83008C10.3301 5.67773 10.3828 5.54883 10.4883 5.44336C10.6055 5.32617 10.7402 5.26758 10.8926 5.26758H13.1426C13.2949 5.26758 13.4238 5.32617 13.5293 5.44336C13.6465 5.54883 13.7051 5.67773 13.7051 5.83008V6.91992H10.3301V5.83008ZM18.1875 20.9824H5.8125V8.04492H9.20508V9.20508C9.20508 9.24023 9.21094 9.29297 9.22266 9.36328C9.23438 9.42188 9.28125 9.50391 9.36328 9.60938C9.45703 9.71484 9.5918 9.76758 9.76758 9.76758C9.95508 9.76758 10.0957 9.7207 10.1895 9.62695C10.2832 9.5332 10.3301 9.43945 10.3301 9.3457V9.20508V8.04492H13.7051V9.20508C13.7051 9.2168 13.7051 9.23438 13.7051 9.25781C13.7051 9.28125 13.7109 9.32812 13.7227 9.39844C13.7461 9.45703 13.7754 9.51562 13.8105 9.57422C13.8457 9.62109 13.8984 9.66797 13.9688 9.71484C14.0508 9.75 14.1504 9.76758 14.2676 9.76758C14.373 9.76758 14.4609 9.75 14.5312 9.71484C14.6133 9.66797 14.6719 9.62109 14.707 9.57422C14.7422 9.51562 14.7656 9.45703 14.7773 9.39844C14.8008 9.33984 14.8184 9.29297 14.8301 9.25781V9.20508V8.04492H18.1875V20.9824Z" fill="#414B5A"/>
</g>
<defs>
<clipPath id="clip0_0_2525">
<rect width="24" height="24" fill="white"/>
</clipPath>
</defs>
</svg>
