<svg width="16" height="16" viewBox="0 0 16 16" fill="none" xmlns="http://www.w3.org/2000/svg">
<path fill-rule="evenodd" clip-rule="evenodd" d="M6.875 13.25C3.35418 13.25 0.5 10.3958 0.5 6.875C0.5 3.35418 3.35418 0.5 6.875 0.5C10.3958 0.5 13.25 3.35418 13.25 6.875C13.25 8.36515 12.7387 9.73589 11.882 10.8214L15.2803 14.2197C15.5732 14.5126 15.5732 14.9874 15.2803 15.2803C14.9874 15.5732 14.5126 15.5732 14.2197 15.2803L10.8214 11.882C9.73589 12.7387 8.36515 13.25 6.875 13.25ZM10.3698 10.2738C10.3526 10.2882 10.3358 10.3035 10.3197 10.3197C10.3035 10.3358 10.2882 10.3526 10.2738 10.3698C9.3957 11.224 8.19678 11.75 6.875 11.75C4.18261 11.75 2 9.56739 2 6.875C2 4.18261 4.18261 2 6.875 2C9.56739 2 11.75 4.18261 11.75 6.875C11.75 8.19678 11.224 9.3957 10.3698 10.2738Z" fill="#B4B4B4"/>
</svg>
