<svg width="15" height="15" viewBox="0 0 15 15" fill="none" xmlns="http://www.w3.org/2000/svg">
<path id="&#238;&#129;&#149;" d="M14.0137 6.5625V1.94141C14.0137 1.64974 13.9089 1.39909 13.6992 1.18945C13.4896 0.979818 13.2389 0.875 12.9473 0.875H8.23047C7.72917 0.875 7.38281 0.970703 7.19141 1.16211L0.273438 8.08008C0.10026 8.25326 0.0136719 8.46289 0.0136719 8.70898C0.0136719 8.82747 0.0364583 8.94141 0.0820312 9.05078C0.127604 9.15104 0.191406 9.24219 0.273438 9.32422L5.56445 14.6152C5.72852 14.7884 5.93359 14.875 6.17969 14.875C6.42578 14.875 6.63542 14.7884 6.80859 14.6152L13.7266 7.69727C13.918 7.50586 14.0137 7.15039 14.0137 6.63086C14.0137 6.60352 14.0137 6.58073 14.0137 6.5625ZM13.0977 7.08203L6.17969 14L0.888672 8.70898L7.80664 1.79102C7.81576 1.7819 7.82943 1.77734 7.84766 1.77734C7.86589 1.76823 7.88867 1.76367 7.91602 1.76367C7.94336 1.76367 7.9707 1.76367 7.99805 1.76367C8.02539 1.75456 8.05273 1.75 8.08008 1.75C8.11654 1.75 8.14388 1.75 8.16211 1.75C8.18034 1.75 8.20312 1.75 8.23047 1.75H8.42188H12.9473C13.002 1.75 13.0475 1.76823 13.084 1.80469C13.1204 1.84115 13.1387 1.88672 13.1387 1.94141V6.57617C13.1387 6.86784 13.125 7.03646 13.0977 7.08203ZM10.5137 2.625C10.0306 2.625 9.61589 2.79818 9.26953 3.14453C8.93229 3.48177 8.76367 3.89193 8.76367 4.375C8.76367 4.69401 8.84115 4.99023 8.99609 5.26367C9.15104 5.52799 9.36068 5.73763 9.625 5.89258C9.89844 6.04753 10.1947 6.125 10.5137 6.125C10.9967 6.125 11.4069 5.95638 11.7441 5.61914C12.0905 5.27279 12.2637 4.85807 12.2637 4.375C12.2637 4.05599 12.1862 3.76432 12.0312 3.5C11.8763 3.22656 11.6621 3.01237 11.3887 2.85742C11.1243 2.70247 10.8327 2.625 10.5137 2.625ZM11.1289 5.00391C10.9648 5.16797 10.7598 5.25 10.5137 5.25C10.2767 5.25 10.0716 5.16797 9.89844 5.00391C9.72526 4.83073 9.63867 4.62109 9.63867 4.375C9.63867 4.12891 9.72526 3.92383 9.89844 3.75977C10.0716 3.58659 10.2767 3.5 10.5137 3.5C10.7598 3.5 10.9648 3.58659 11.1289 3.75977C11.3021 3.92383 11.3887 4.12891 11.3887 4.375C11.3887 4.62109 11.3021 4.83073 11.1289 5.00391Z" fill="#7F7F7F"/>
</svg>
